<?xml version="1.0" encoding="UTF-8" standalone="no"?>
<!-- Created with Inkscape (http://www.inkscape.org/) -->

<svg
   xmlns:dc="http://purl.org/dc/elements/1.1/"
   xmlns:cc="http://creativecommons.org/ns#"
   xmlns:rdf="http://www.w3.org/1999/02/22-rdf-syntax-ns#"
   xmlns:svg="http://www.w3.org/2000/svg"
   xmlns="http://www.w3.org/2000/svg"
   xmlns:sodipodi="http://sodipodi.sourceforge.net/DTD/sodipodi-0.dtd"
   xmlns:inkscape="http://www.inkscape.org/namespaces/inkscape"
   id="svg2"
   version="1.1"
   inkscape:version="0.48.3.1 r9886"
   width="547.60242"
   height="672.41089"
   sodipodi:docname="eee.png">
  <metadata
     id="metadata8">
    <rdf:RDF>
      <cc:Work
         rdf:about="">
        <dc:format>image/svg+xml</dc:format>
        <dc:type
           rdf:resource="http://purl.org/dc/dcmitype/StillImage" />
        <dc:title></dc:title>
      </cc:Work>
    </rdf:RDF>
  </metadata>
  <defs
     id="defs6" />
  <sodipodi:namedview
     pagecolor="#ffffff"
     bordercolor="#666666"
     borderopacity="1"
     objecttolerance="10"
     gridtolerance="10"
     guidetolerance="10"
     inkscape:pageopacity="0"
     inkscape:pageshadow="2"
     inkscape:window-width="1391"
     inkscape:window-height="876"
     id="namedview4"
     showgrid="false"
     fit-margin-top="0"
     fit-margin-left="0"
     fit-margin-right="0"
     fit-margin-bottom="0"
     inkscape:zoom="0.50966556"
     inkscape:cx="170.62774"
     inkscape:cy="158.22621"
     inkscape:window-x="49"
     inkscape:window-y="24"
     inkscape:window-maximized="1"
     inkscape:current-layer="svg2" />
  <path
     style="fill:#000000;fill-opacity:1;stroke:#000000;stroke-width:1px;stroke-linecap:butt;stroke-linejoin:miter;stroke-opacity:1"
     d="M 62.088985,601.57203 8.550847,564.94067 30.690678,619.28389 0.5,602.77965 33.105932,643.43643 5.330508,630.95762 c 0,0 16.076048,29.14301 30.190678,35.82627 8.732499,4.13483 19.465299,2.06558 28.983049,0.40254 14.26362,-2.49228 26.27995,-17.01968 40.656775,-15.29661 10.64236,1.27549 16.35312,14.8668 26.5678,18.11441 7.41776,2.35837 15.87199,2.57104 23.34746,0.40254 5.86174,-1.70038 9.29784,-8.93843 15.29661,-10.06356 7.553,-1.41664 15.09422,6.72255 22.54237,4.83051 7.19403,-1.82749 9.4889,-14.22932 16.90679,-14.49152 9.68196,-0.34223 14.04336,14.60909 23.34746,17.30932 5.29753,1.53745 11.36496,0.79624 16.50423,-1.20763 9.2544,-3.60842 13.67773,-16.2452 23.34746,-18.51695 4.40652,-1.03524 8.91202,1.64486 13.2839,2.8178 6.27043,1.6823 12.14372,7.27522 18.51695,6.03813 8.60137,-1.66959 11.85464,-14.01935 20.12712,-16.90678 4.68908,-1.63668 10.02016,-0.55199 14.89407,0.40255 15.33483,3.00327 28.28298,17.50409 43.87711,16.50423 7.42785,-0.47626 12.39861,-9.15083 19.72458,-10.4661 7.99428,-1.43525 16.2535,1.32994 24.15254,3.22034 10.64801,2.54829 20.17518,12.53861 30.99577,10.86865 7.29359,-1.12564 10.35048,-13.80706 17.71186,-13.2839 7.94988,0.56498 9.83931,13.22293 16.90678,16.90678 7.4924,3.90534 17.54587,8.48427 24.95763,4.42796 8.28471,-4.53406 6.57229,-17.75481 10.86864,-26.16525 5.01466,-9.81659 14.60153,-17.49246 17.30932,-28.17797 1.81553,-7.16446 -0.0693,-14.83709 -1.20762,-22.13983 -2.05001,-13.15217 -10.06356,-38.64406 -10.06356,-38.64406 l -0.40255,40.65677 c 0,0 -11.94481,-13.53576 -15.29661,-21.73728 -3.44656,-8.43338 0.71082,-19.44747 -4.42796,-26.97034 -14.2521,-20.86425 -65.21188,-38.64407 -65.21188,-38.64407 z"
     id="path3762"
     inkscape:connector-curvature="0"
     sodipodi:nodetypes="ccccccsssssssssssssssssssssssssccsscc" />
  <path
     style="fill:none;stroke:#000000;stroke-width:13.10000038;stroke-linecap:square;stroke-linejoin:miter;stroke-miterlimit:36;stroke-opacity:1;stroke-dasharray:none"
     d="M 64.292025,150.37404 C 51.337595,143.98503 106.85781,145.24493 111.00533,131.01087 115.70499,114.88185 80.981055,108.2995 85.616805,103.24553 142.5154,41.213731 289.48854,-74.539999 474.51337,94.364881 l 2.08109,31.910049 15.26133,19.42351 15.26133,53.41466 -0.6937,130.41501 -11.79285,31.91005 13.18024,15.26133 0,196.31621"
     id="path3784"
     inkscape:connector-curvature="0"
     sodipodi:nodetypes="csscccccccc" />
  <path
     style="fill:#e5e5e5;fill-opacity:1;stroke:#000000;stroke-width:6;stroke-linecap:butt;stroke-linejoin:bevel;stroke-miterlimit:4;stroke-opacity:1;stroke-dasharray:none"
     d="m 56.050845,634.98304 -9.66101,-313.98305 31.80084,-4.83051 -28.17796,-17.30932 0.40254,-99.83051 c 0,0 7.73988,-21.53921 8.87844,-22.67777 1.13856,-1.13856 -1.4232,-25.61764 -1.4232,-25.61764 l 35.58005,-3.13104 -12.52418,-39.56503 C 252.43587,-63.401079 406.06238,27.942321 470.88377,99.498961 l 1.13856,28.179409 17.07843,17.07842 15.93986,52.65848 -1.4232,130.93461 -11.95489,32.44901 13.66273,13.3781 -1.70784,235.39764 -29.88725,29.88725 z"
     id="path2987"
     inkscape:connector-curvature="0"
     sodipodi:nodetypes="cccccsccccccccccccc" />
  <path
     style="fill:none;stroke:#000000;stroke-width:13.10000038;stroke-linecap:butt;stroke-linejoin:miter;stroke-miterlimit:4;stroke-opacity:1;stroke-dasharray:none"
     d="m 341.34406,23.049331 85.04577,78.967609 10.4661,28.98305 27.37288,63.6017 2.41525,145.72034 -11.14855,24.36582 12.88135,21.73729 0.80509,252.79661"
     id="path3757"
     inkscape:connector-curvature="0"
     sodipodi:nodetypes="cccccccc" />
  <path
     style="fill:#000000;fill-opacity:1;stroke:#000000;stroke-width:1px;stroke-linecap:butt;stroke-linejoin:miter;stroke-opacity:1"
     d="m 323.86683,15.307681 c 0,0 -13.2896,25.54652 -28.70582,32.76858 -23.46707,4.80681 -52.07026,1.36803 -79.70339,2.41526 -10.24673,0.38833 -24.75332,-1.32763 -34.2161,4.02543 -10.23819,5.79171 -17.30932,26.56779 -17.30932,26.56779 0,0 14.40784,-18.89424 24.95762,-22.94492 12.27658,-4.71369 39.44916,0.40255 39.44916,0.40255 l -27.37288,30.59322 c 0,0 -14.10762,21.939399 -18.51695,22.944909 -7.02556,1.60213 -30.13385,-2.36417 -38.64407,-2.8178 -9.51657,4.57815 -20.12712,12.88136 -20.12712,12.88136 l 26.5678,-6.44068 16.90678,5.6356 c 0,0 -15.86019,14.78372 -20.93221,24.15254 -4.65062,8.59043 -8.05084,28.17796 -8.05084,28.17796 0,0 8.65227,-19.89613 14.49152,-28.98305 5.77765,-8.99106 20.12712,-24.95762 20.12712,-24.95762 0,0 10.13363,0.5417 14.49153,-1.61017 7.99875,-3.94967 18.51695,-19.322039 18.51695,-19.322039 0,0 1.43529,20.082399 5.63559,28.983049 5.93902,12.58508 26.56779,32.20339 26.56779,32.20339 l 4.83051,21.73729 0.80509,-29.78813 18.51695,0.80508 -33.00848,-12.07627 c -12.04685,-11.34288 -16.11379,-30.00068 -15.29661,-53.135589 0,0 19.43895,-6.94022 24.95763,-16.50424 1.88252,-3.26246 4.02542,-9.25848 4.02542,-9.25848 0,0 43.42995,-0.40828 59.57627,-4.8305 12.52344,-8.85018 41.90175,-36.91396 41.90175,-36.91396 z"
     id="path3760"
     inkscape:connector-curvature="0"
     sodipodi:nodetypes="ccsscsccsccccscscscsccccccscccc" />
  <path
     style="fill:#000000;fill-opacity:1;stroke:none"
     d="m 155.10706,201.74628 c -13.7948,0.10289 -26.90619,1.40625 -26.90619,1.40625 -29.183505,-1.10429 -20.1306,18.41443 -9.8125,18.625 l 24.03129,0.5 1.46871,65.71875 c -0.5434,8.50949 12.459,20.57523 18.15629,6.375 l 1.96871,-26.46875 c 19.1019,4.75532 27.0268,18.71217 35.3125,32.375 9.36,5.36271 19.33749,11.71805 17.6562,-10.8125 l -20.5937,-28.4375 c 15.96109,-16.42559 16.78629,-49.85345 -18.4063,-57.625 -6.077,-1.34201 -14.598,-1.71798 -22.875,-1.65625 z m 16.34381,21.21875 c 5.644,-0.10487 11.9108,5.10381 15.84379,17.71875 -9.3959,1.02925 -18.79169,2.72493 -28.1876,0 0.3741,-10.65937 5.94721,-17.5999 12.3438,-17.71875 z"
     id="path3764"
     inkscape:connector-curvature="0"
     sodipodi:nodetypes="scccccccccsssccs" />
  <path
     style="fill:#000000;fill-opacity:1;stroke:none"
     d="m 260.39476,205.59852 c 9.2185,2.07477 12.58391,14.03361 16.4323,27.95951 l -0.4905,61.80523 c -6.3767,2.75898 -12.75349,2.79056 -19.1302,0 l 0.4905,-66.71041 c -0.2581,-3.2318 -6.173,-7.00316 -6.13139,-14.47027 0.016,-2.79641 2.6066,-9.98457 8.82929,-8.58406 z"
     id="path3766"
     inkscape:connector-curvature="0"
     sodipodi:nodetypes="sccccss" />
  <path
     style="fill:#000000;fill-opacity:1;stroke:none"
     d="m 323.41966,203.62128 c -30.2654,-0.31858 -20.44589,22.48008 -19.625,22.59375 7.02871,0.97304 20.6579,0.60806 20.625,0.96875 -2.0319,22.43144 1.89671,53.69145 2.43741,67.6875 0.4135,10.70066 18.30239,13.10598 19.125,4.40625 0.5348,-5.6552 0,-31.875 0,-31.875 l 19.625,-3.4375 c 28.90589,-6.65513 26.7228,-59.60884 4.4063,-59.84375 z m 22.5,20.96875 c 32.0632,-0.31964 27.85951,23.78933 -3.09379,25.125 -2.8508,-7.53816 -1.7604,-16.2024 -0.094,-25.03125 1.1102,-0.0627 2.1533,-0.0834 3.18759,-0.0937 z"
     id="path3768"
     inkscape:connector-curvature="0"
     sodipodi:nodetypes="cccccccccsccs" />
  <path
     style="fill:#000000;fill-opacity:1;stroke:#000000;stroke-width:1px;stroke-linecap:butt;stroke-linejoin:miter;stroke-opacity:1"
     d="m 63.844825,636.48896 c 1.04055,-1.73424 20.11721,-46.13084 20.11721,-46.13084 l 4.16218,24.27939 12.139705,-9.36491 2.08109,31.56321 z"
     id="path3776"
     inkscape:connector-curvature="0" />
  <path
     style="fill:#000000;fill-opacity:1;stroke:#000000;stroke-width:1px;stroke-linecap:butt;stroke-linejoin:miter;stroke-opacity:1"
     d="m 238.30958,636.14211 c 1.04055,-3.12163 11.09915,-41.27496 11.09915,-41.27496 l 9.01806,44.3966 z"
     id="path3778"
     inkscape:connector-curvature="0" />
  <path
     style="fill:#000000;fill-opacity:1;stroke:#000000;stroke-width:1px;stroke-linecap:butt;stroke-linejoin:miter;stroke-opacity:1"
     d="m 312.86086,636.63263 40.71719,-64.17964 6.6352,51.34625 20.82957,-23.88324 8.65379,19.77758 12.47931,3.13308 37.2445,3.87061 26.24146,-26.48796 3.25931,39.97596 z"
     id="path3780"
     inkscape:connector-curvature="0"
     sodipodi:nodetypes="cccccccccc" />
  <path
     style="fill:#000000;fill-opacity:1;stroke:#000000;stroke-width:1px;stroke-linecap:butt;stroke-linejoin:miter;stroke-opacity:1"
     d="m 167.20565,642.38538 10.48363,-66.63573 18.65165,62.47355 z"
     id="path3782"
     inkscape:connector-curvature="0"
     sodipodi:nodetypes="cccc" />
</svg>
